<svg width="28" height="28" viewBox="0 0 28 28" fill="none" xmlns="http://www.w3.org/2000/svg">
<path fill-rule="evenodd" clip-rule="evenodd" d="M14.1857 17.5283V19.6568C14.1853 19.6856 14.1927 19.7141 14.2071 19.7391C14.2215 19.7641 14.2425 19.7847 14.2677 19.7988L15.9335 20.7606C16.0432 20.824 16.1796 20.7453 16.1796 20.6185V17.7763L23.0553 13.8066L25.2228 15.058C25.3967 15.1584 25.4962 15.3308 25.4962 15.5316V22.8395C25.4962 23.0403 25.3967 23.2127 25.2228 23.3131L18.8939 26.9671C18.72 27.0675 18.5209 27.0675 18.347 26.9671L12.0182 23.3131C11.8443 23.2127 11.7447 23.0403 11.7447 22.8395V16.2263L13.6976 17.3537C13.8483 17.4411 14.0137 17.5002 14.1857 17.5283ZM14.6819 1.03282C14.508 0.932418 14.309 0.932418 14.1351 1.03282L7.80619 4.68682C7.63228 4.78723 7.53275 4.95966 7.53275 5.16042V12.4684C7.53275 12.6692 7.63228 12.8416 7.80619 12.942L14.1351 16.596C14.309 16.6964 14.508 16.6964 14.6819 16.596L21.0108 12.942C21.1847 12.8416 21.2843 12.6692 21.2843 12.4684V5.16042C21.2843 4.95961 21.1847 4.78723 21.0108 4.68682L18.8433 3.43546L11.9676 7.40518V10.2474C11.9676 10.3741 11.8313 10.4528 11.7215 10.3895L10.0557 9.42768C10.0305 9.41359 10.0096 9.39295 9.99513 9.36794C9.98069 9.34293 9.97328 9.31448 9.97368 9.28561V6.25395L16.8494 2.28424L14.6819 1.03282ZM6.65775 10.3003L4.94429 11.2896V14.3213C4.94389 14.3502 4.9513 14.3786 4.96574 14.4036C4.98018 14.4286 5.00111 14.4493 5.02632 14.4634L6.69215 15.4252C6.80186 15.4885 6.93825 15.4098 6.93825 15.2831V13.3193C7.05445 13.474 7.20088 13.6034 7.36864 13.6997L10.8697 15.7211V20.9289L9.6525 21.6316C9.47859 21.732 9.27953 21.732 9.10562 21.6316L2.77686 17.9777C2.60295 17.8773 2.50342 17.7049 2.50342 17.5041V10.1961C2.50342 9.99529 2.60295 9.82291 2.77686 9.7225L6.65775 7.4819V10.3003Z" fill="black"/>
</svg>
