<svg width="12" height="12" viewBox="0 0 12 12" fill="none" xmlns="http://www.w3.org/2000/svg">
<path d="M0 1.75C0 1.55109 0.0790176 1.36032 0.21967 1.21967C0.360322 1.07902 0.551088 1 0.75 1H11.25C11.4489 1 11.6397 1.07902 11.7803 1.21967C11.921 1.36032 12 1.55109 12 1.75V3.25C12 3.44891 11.921 3.63968 11.7803 3.78033C11.6397 3.92098 11.4489 4 11.25 4V9.625C11.25 10.1223 11.0525 10.5992 10.7008 10.9508C10.3492 11.3025 9.87228 11.5 9.375 11.5H2.625C2.12772 11.5 1.65081 11.3025 1.29917 10.9508C0.947544 10.5992 0.75 10.1223 0.75 9.625V4C0.551088 4 0.360322 3.92098 0.21967 3.78033C0.0790176 3.63968 0 3.44891 0 3.25V1.75ZM1.5 4V9.625C1.5 9.92337 1.61853 10.2095 1.8295 10.4205C2.04048 10.6315 2.32663 10.75 2.625 10.75H9.375C9.67337 10.75 9.95952 10.6315 10.1705 10.4205C10.3815 10.2095 10.5 9.92337 10.5 9.625V4H1.5ZM11.25 1.75H0.75V3.25H11.25V1.75ZM3.75 5.875C3.75 5.77554 3.78951 5.68016 3.85984 5.60984C3.93016 5.53951 4.02554 5.5 4.125 5.5H7.875C7.97446 5.5 8.06984 5.53951 8.14017 5.60984C8.21049 5.68016 8.25 5.77554 8.25 5.875C8.25 5.97446 8.21049 6.06984 8.14017 6.14016C8.06984 6.21049 7.97446 6.25 7.875 6.25H4.125C4.02554 6.25 3.93016 6.21049 3.85984 6.14016C3.78951 6.06984 3.75 5.97446 3.75 5.875Z" fill="#4D4D4D"/>
</svg>
